<?xml version="1.0" standalone="no"?>
<svg xmlns:xlink="http://www.w3.org/1999/xlink" id="wave" style="transform:rotate(0deg); transition: 0.3s" viewBox="0 0 1440 100" version="1.1" xmlns="http://www.w3.org/2000/svg"><defs><linearGradient id="sw-gradient-0" x1="0" x2="0" y1="1" y2="0"><stop stop-color="rgba(255, 195, 245, 1)" offset="0%"/><stop stop-color="rgba(255, 195, 245, 1)" offset="100%"/></linearGradient></defs><path style="transform:translate(0, 0px); opacity:1" fill="url(#sw-gradient-0)" d="M0,50L48,53.3C96,57,192,63,288,65C384,67,480,63,576,51.7C672,40,768,20,864,23.3C960,27,1056,53,1152,63.3C1248,73,1344,67,1440,60C1536,53,1632,47,1728,48.3C1824,50,1920,60,2016,63.3C2112,67,2208,63,2304,65C2400,67,2496,73,2592,75C2688,77,2784,73,2880,71.7C2976,70,3072,70,3168,58.3C3264,47,3360,23,3456,11.7C3552,0,3648,0,3744,15C3840,30,3936,60,4032,75C4128,90,4224,90,4320,88.3C4416,87,4512,83,4608,70C4704,57,4800,33,4896,35C4992,37,5088,63,5184,70C5280,77,5376,63,5472,60C5568,57,5664,63,5760,56.7C5856,50,5952,30,6048,25C6144,20,6240,30,6336,28.3C6432,27,6528,13,6624,8.3C6720,3,6816,7,6864,8.3L6912,10L6912,100L6864,100C6816,100,6720,100,6624,100C6528,100,6432,100,6336,100C6240,100,6144,100,6048,100C5952,100,5856,100,5760,100C5664,100,5568,100,5472,100C5376,100,5280,100,5184,100C5088,100,4992,100,4896,100C4800,100,4704,100,4608,100C4512,100,4416,100,4320,100C4224,100,4128,100,4032,100C3936,100,3840,100,3744,100C3648,100,3552,100,3456,100C3360,100,3264,100,3168,100C3072,100,2976,100,2880,100C2784,100,2688,100,2592,100C2496,100,2400,100,2304,100C2208,100,2112,100,2016,100C1920,100,1824,100,1728,100C1632,100,1536,100,1440,100C1344,100,1248,100,1152,100C1056,100,960,100,864,100C768,100,672,100,576,100C480,100,384,100,288,100C192,100,96,100,48,100L0,100Z"/></svg>